<svg aria-hidden="true" style="position: absolute; width: 0; height: 0; overflow: hidden;" version="1.1" xmlns="http://www.w3.org/2000/svg" xmlns:xlink="http://www.w3.org/1999/xlink">
<defs>

<symbol id="icon-moon" viewBox="0 0 24 24" stroke-width="1.5" stroke="currentColor" class="w-6 h-6">
  <path stroke-linecap="round" stroke-linejoin="round" d="M21.752 15.002A9.72 9.72 0 0 1 18 15.75c-5.385 0-9.75-4.365-9.75-9.75 0-1.33.266-2.597.748-3.752A9.753 9.753 0 0 0 3 11.25C3 16.635 7.365 21 12.75 21a9.753 9.753 0 0 0 9.002-5.998Z" />
</symbol>


<symbol id="icon-sun" viewBox="0 0 24 24" stroke-width="1.5" stroke="currentColor" class="w-6 h-6">
  <path stroke-linecap="round" stroke-linejoin="round" d="M12 3v2.25m6.364.386-1.591 1.591M21 12h-2.25m-.386 6.364-1.591-1.591M12 18.75V21m-4.773-4.227-1.591 1.591M5.25 12H3m4.227-4.773L5.636 5.636M15.75 12a3.75 3.75 0 1 1-7.5 0 3.75 3.75 0 0 1 7.5 0Z" />
</symbol>


<symbol id="icon-menu" viewBox="0 0 24 24" stroke-width="1.5" stroke="currentColor" class="w-6 h-6">
  <path stroke-linecap="round" stroke-linejoin="round" d="M3.75 6.75h16.5M3.75 12h16.5M12 17.25h8.25" />
</symbol>



<symbol id="icon-close" viewBox="0 0 24 24" stroke-width="1.5" stroke="currentColor" class="w-6 h-6">
  <path stroke-linecap="round" stroke-linejoin="round" d="M6 18 18 6M6 6l12 12" />
</symbol>

<!-- blob shape -->
<symbol id="icon-blob" viewBox="0 0 20 20" xmlns="http://www.w3.org/2000/svg">
   <path fill="#4E6BFF" d="M61.4,-48.7C71.5,-36.2,66.1,-11.2,57.1,6.8C48,24.7,35.1,35.5,20,43.6C4.9,51.7,-12.6,57,-27.1,51.8C-41.7,46.5,-53.4,30.7,-59.5,11.5C-65.6,-7.7,-66,-30.4,-55.1,-43C-44.3,-55.6,-22.1,-58.3,1.7,-59.7C25.6,-61.1,51.2,-61.2,61.4,-48.7Z" transform="translate(100 100)" />
</symbol>

<symbol id="icon-antena" viewBox="0 0 24 24">
<path d="M12 0.984q4.547 0 7.781 3.234t3.234 7.781h-2.016q0-3.75-2.625-6.375t-6.375-2.625-6.375 2.625-2.625 6.375h-2.016q0-4.547 3.234-7.781t7.781-3.234zM12.984 14.297v3.281l3.422 3.422-1.406 1.406-3-3-3 3-1.406-1.406 3.422-3.422v-3.281q-1.5-0.609-1.5-2.297 0-1.031 0.727-1.758t1.758-0.727 1.758 0.727 0.727 1.758q0 1.688-1.5 2.297zM12 5.016q2.906 0 4.945 2.039t2.039 4.945h-1.969q0-2.063-1.477-3.539t-3.539-1.477-3.539 1.477-1.477 3.539h-1.969q0-2.906 2.039-4.945t4.945-2.039z"></path>
</symbol>

<symbol id="icon-local_police" viewBox="0 0 24 24">
<path d="M12 0.984l-9 4.031v6q0 2.063 0.68 4.008t1.898 3.586 2.859 2.789 3.563 1.617q1.922-0.469 3.563-1.617t2.859-2.789 1.898-3.586 0.68-4.008v-6zM14.484 12.609l0.938 3.844-3.422-2.016-3.422 2.016 0.938-3.844-3-2.578 3.938-0.375 1.547-3.656 1.547 3.656 3.938 0.328z"></path>
</symbol>

<symbol id="icon-users" viewBox="0 0 24 24">
<path d="M15 14.363c0 0-6.182 0-8.5 5.41 0 0 3.871 1.545 8.5 1.545s8.5-1.545 8.5-1.545c-2.318-5.41-8.5-5.41-8.5-5.41zM15 13.592c2.318 0 3.863-2.318 3.863-6.183s-3.863-3.864-3.863-3.864-3.863 0-3.863 3.864 1.545 6.183 3.863 6.183zM7.5 10.955c0.762 0 1.416-0.316 1.935-0.885-0.192-0.777-0.298-1.665-0.298-2.661 0-1.485 0.571-2.396 1.274-2.958-0.766-1.765-2.911-1.769-2.911-1.769s-3.182 0-3.182 3.182c0 3.182 1.273 5.091 3.182 5.091zM10.5 13.449l-0.108-1.258c-1.558-0.596-2.892-0.6-2.892-0.6s-5.091 0-7 4.455c0 0 2.461 0.981 5.645 1.22 2.773-2.903 4.355-3.817 4.355-3.817z"></path>
</symbol>

<symbol id="icon-stack" viewBox="0 0 32 32">
<path d="M28.608 11.246l-12.608-8.632-12.608 8.632 12.608 8.631 12.608-8.631zM16 21.803l-11.129-7.338-1.479 1.535 12.608 8.631 12.608-8.631-1.499-1.568-11.109 7.371zM16 26.559l-11.129-7.338-1.479 1.535 12.608 8.631 12.608-8.631-1.499-1.568-11.109 7.371z"></path>
</symbol>
<symbol id="icon-stopwatch" viewBox="0 0 24 24">
<path d="M13 4.050v-1.050h0.5c0.276 0 0.5-0.224 0.5-0.5v-2c0-0.276-0.224-0.5-0.5-0.5h-3c-0.276 0-0.5 0.224-0.5 0.5v2c0 0.276 0.224 0.5 0.5 0.5h0.5v1.054c-0.901 0.092-1.767 0.304-2.583 0.619l-1.047-1.011-1.827-1.826-3.518 3.518 2.271 2.271c-1.434 1.73-2.296 3.951-2.296 6.375 0 5.523 4.477 10 10 10s10-4.477 10-10c0-5.186-3.946-9.448-9-9.95zM11 1h2v1h-2v-1zM3.439 5.354l2.104-2.104 1.167 1.166-2.104 2.104-1.167-1.166zM12 22c-4.411 0-8-3.589-8-8s3.589-8 8-8 8 3.589 8 8-3.589 8-8 8zM11.207 9.459c-0.391-0.391-1.023-0.391-1.414 0s-0.391 1.023 0 1.414l1.964 1.965-2.628 3.672c-0.271 0.481-0.101 1.091 0.381 1.361 0.155 0.088 0.323 0.129 0.489 0.129 0.35 0 0.689-0.184 0.872-0.51l3-4.334c0.221-0.391 0.153-0.88-0.164-1.197l-2.5-2.5z"></path>
</symbol>
<symbol id="icon-bars" viewBox="0 0 32 32">
<path d="M24 0h8v32h-8zM12 8h8v24h-8zM0 16h8v16h-8z"></path>
</symbol>
<symbol id="icon-power" viewBox="0 0 32 32">
<path d="M12 0l-12 16h12l-8 16 28-20h-16l12-12z"></path>
</symbol>
<symbol id="icon-plugin" viewBox="0 0 20 20">
<path d="M20 14v4c0 1.105-0.895 2-2 2v0h-4v-2c0-1.105-0.895-2-2-2v0c-1.105 0-2 0.895-2 2v0 2h-4c-1.105 0-2-0.895-2-2v0-4h-2c-1.105 0-2-0.895-2-2v0c0-1.105 0.895-2 2-2v0h2v-4c0-1.1 0.9-2 2-2h4v-2c0-1.105 0.895-2 2-2v0c1.105 0 2 0.895 2 2v0 2h4c1.105 0 2 0.895 2 2v0 4h-2c-1.105 0-2 0.895-2 2v0c0 1.105 0.895 2 2 2v0h2z"></path>
</symbol>
<symbol id="icon-cogs" viewBox="0 0 32 32">
<path d="M21.268 22.039l0.709-0.709c0.783-0.783 0.783-2.053 0-2.836l-1.224-1.223c0.394-0.686 0.703-1.424 0.918-2.203h1.324c1.107 0 2.005-0.898 2.005-2.005v-1.002c0-1.107-0.897-2.005-2.005-2.005h-1.308c-0.208-0.771-0.503-1.505-0.887-2.186l1.177-1.176c0.783-0.783 0.783-2.053 0-2.836l-0.709-0.708c-0.783-0.783-2.053-0.783-2.836 0l-1.153 1.153c-0.705-0.411-1.467-0.731-2.272-0.951v-1.347c-0.001-1.108-0.899-2.005-2.006-2.005h-1.002c-1.107 0-2.006 0.897-2.006 2.005v1.347c-0.805 0.22-1.566 0.54-2.272 0.951l-1.154-1.154c-0.782-0.783-2.052-0.783-2.835 0l-0.709 0.708c-0.783 0.783-0.783 2.053 0 2.836l1.176 1.177c-0.383 0.681-0.68 1.415-0.887 2.187h-1.307c-1.108-0.001-2.005 0.897-2.005 2.005v1.002c0 1.107 0.897 2.005 2.005 2.005h1.323c0.216 0.779 0.524 1.517 0.919 2.203l-1.224 1.223c-0.783 0.783-0.783 2.053 0 2.836l0.709 0.709c0.783 0.783 2.053 0.783 2.835 0l1.231-1.231c0.684 0.389 1.419 0.692 2.194 0.903v1.284c0 1.106 0.898 2.005 2.006 2.005h1.002c1.107 0 2.005-0.898 2.005-2.005v-1.284c0.775-0.211 1.512-0.515 2.194-0.903l1.231 1.231c0.785 0.782 2.054 0.782 2.838-0.001zM12.5 18.107c-3.045 0-5.514-2.468-5.514-5.514s2.469-5.514 5.514-5.514 5.514 2.469 5.514 5.514c0 3.046-2.469 5.514-5.514 5.514zM12.5 10.025c-1.385 0-2.507 1.122-2.507 2.506s1.122 2.506 2.507 2.506c1.384 0 2.506-1.122 2.506-2.506s-1.122-2.506-2.506-2.506zM25.062 28.862c-0.672 0-1.216 0.544-1.216 1.216 0 0.671 0.544 1.215 1.216 1.215 0.671 0 1.216-0.544 1.216-1.215 0-0.672-0.545-1.216-1.216-1.216zM30.152 28.877h-0.634c-0.101-0.374-0.245-0.73-0.431-1.061l0.57-0.57c0.38-0.38 0.38-0.996 0-1.375l-0.344-0.344c-0.38-0.38-0.995-0.38-1.375 0l-0.56 0.559c-0.342-0.199-0.712-0.354-1.102-0.461v-0.652c0-0.537-0.436-0.973-0.973-0.973h-0.486c-0.537 0-0.973 0.436-0.973 0.973v0.652c-0.391 0.107-0.76 0.262-1.102 0.461l-0.56-0.559c-0.38-0.38-0.996-0.38-1.375 0l-0.344 0.344c-0.38 0.379-0.38 0.995 0 1.375l0.57 0.57c-0.187 0.33-0.33 0.687-0.431 1.061h-0.634c-0.537 0-0.973 0.436-0.973 0.973v0.486c0 0.537 0.436 0.973 0.973 0.973h0.642c0.104 0.377 0.254 0.735 0.445 1.068l-0.593 0.593c-0.38 0.38-0.38 0.995 0 1.376l0.344 0.344c0.379 0.379 0.995 0.379 1.375 0l0.597-0.598c0.332 0.188 0.688 0.336 1.064 0.438v0.623c0 0.537 0.436 0.973 0.973 0.973h0.486c0.537 0 0.973-0.436 0.973-0.973v-0.623c0.376-0.102 0.732-0.249 1.063-0.438l0.598 0.598c0.38 0.379 0.995 0.379 1.375 0l0.344-0.344c0.38-0.381 0.38-0.996 0-1.376l-0.593-0.593c0.19-0.333 0.341-0.691 0.445-1.068h0.642c0.537 0 0.973-0.436 0.973-0.973v-0.486c0.004-0.538-0.432-0.973-0.969-0.973zM25.062 32.782c-1.477 0-2.674-1.197-2.674-2.675 0-1.477 1.197-2.674 2.674-2.674s2.674 1.197 2.674 2.674c0 1.478-1.197 2.675-2.674 2.675z"></path>
</symbol>


<symbol id="icon-arrow-right" viewBox="0 0 24 24">
<path d="M11.293 5.707l5.293 5.293h-11.586c-0.552 0-1 0.448-1 1s0.448 1 1 1h11.586l-5.293 5.293c-0.391 0.391-0.391 1.024 0 1.414s1.024 0.391 1.414 0l7-7c0.092-0.092 0.166-0.202 0.217-0.324 0.101-0.245 0.101-0.521 0-0.766-0.049-0.118-0.121-0.228-0.217-0.324l-7-7c-0.391-0.391-1.024-0.391-1.414 0s-0.391 1.024 0 1.414z"></path>
</symbol>

</defs>
</svg>