<svg aria-hidden="true" style="position: absolute; width: 0; height: 0; overflow: hidden;" version="1.1" xmlns="http://www.w3.org/2000/svg" xmlns:xlink="http://www.w3.org/1999/xlink">
<defs>

<symbol id="icon-moon" viewBox="0 0 24 24" stroke-width="1.5" stroke="currentColor" class="w-6 h-6">
  <path stroke-linecap="round" stroke-linejoin="round" d="M21.752 15.002A9.72 9.72 0 0 1 18 15.75c-5.385 0-9.75-4.365-9.75-9.75 0-1.33.266-2.597.748-3.752A9.753 9.753 0 0 0 3 11.25C3 16.635 7.365 21 12.75 21a9.753 9.753 0 0 0 9.002-5.998Z" />
</symbol>


<symbol id="icon-sun" viewBox="0 0 24 24" stroke-width="1.5" stroke="currentColor" class="w-6 h-6">
  <path stroke-linecap="round" stroke-linejoin="round" d="M12 3v2.25m6.364.386-1.591 1.591M21 12h-2.25m-.386 6.364-1.591-1.591M12 18.75V21m-4.773-4.227-1.591 1.591M5.25 12H3m4.227-4.773L5.636 5.636M15.75 12a3.75 3.75 0 1 1-7.5 0 3.75 3.75 0 0 1 7.5 0Z" />
</symbol>


<symbol id="icon-menu" viewBox="0 0 24 24" stroke-width="1.5" stroke="currentColor" class="w-6 h-6">
  <path stroke-linecap="round" stroke-linejoin="round" d="M3.75 6.75h16.5M3.75 12h16.5M12 17.25h8.25" />
</symbol>



<symbol id="icon-close" viewBox="0 0 24 24" stroke-width="1.5" stroke="currentColor" class="w-6 h-6">
  <path stroke-linecap="round" stroke-linejoin="round" d="M6 18 18 6M6 6l12 12" />
</symbol>

<!-- blob shape -->
<symbol id="icon-blob" viewBox="0 0 200 200" xmlns="http://www.w3.org/2000/svg">
  <path fill="#2A36D8" d="M45.1,-43.8C58.5,-31.7,69.5,-15.8,72.7,3.1C75.8,22.1,71.1,44.2,57.7,54.9C44.2,65.5,22.1,64.5,1.3,63.2C-19.5,61.9,-39,60.2,-54,49.6C-69,39,-79.7,19.5,-79.1,0.6C-78.5,-18.4,-66.8,-36.7,-51.8,-48.8C-36.7,-61,-18.4,-66.8,-1.3,-65.6C15.8,-64.3,31.7,-55.9,45.1,-43.8Z" transform="translate(100 100)" />
</symbol>

</defs>
</svg>