<svg aria-hidden="true" style="position: absolute; width: 0; height: 0; overflow: hidden;" version="1.1" xmlns="http://www.w3.org/2000/svg" xmlns:xlink="http://www.w3.org/1999/xlink">
<defs>

<symbol id="icon-moon" viewBox="0 0 24 24" stroke-width="1.5" stroke="currentColor" class="w-6 h-6">
  <path stroke-linecap="round" stroke-linejoin="round" d="M21.752 15.002A9.72 9.72 0 0 1 18 15.75c-5.385 0-9.75-4.365-9.75-9.75 0-1.33.266-2.597.748-3.752A9.753 9.753 0 0 0 3 11.25C3 16.635 7.365 21 12.75 21a9.753 9.753 0 0 0 9.002-5.998Z" />
</symbol>


<symbol id="icon-sun" viewBox="0 0 24 24" stroke-width="1.5" stroke="currentColor" class="w-6 h-6">
  <path stroke-linecap="round" stroke-linejoin="round" d="M12 3v2.25m6.364.386-1.591 1.591M21 12h-2.25m-.386 6.364-1.591-1.591M12 18.75V21m-4.773-4.227-1.591 1.591M5.25 12H3m4.227-4.773L5.636 5.636M15.75 12a3.75 3.75 0 1 1-7.5 0 3.75 3.75 0 0 1 7.5 0Z" />
</symbol>


<symbol id="icon-menu" viewBox="0 0 24 24" stroke-width="1.5" stroke="currentColor" class="w-6 h-6">
  <path stroke-linecap="round" stroke-linejoin="round" d="M3.75 6.75h16.5M3.75 12h16.5M12 17.25h8.25" />
</symbol>



<symbol id="icon-close" viewBox="0 0 24 24" stroke-width="1.5" stroke="currentColor" class="w-6 h-6">
  <path stroke-linecap="round" stroke-linejoin="round" d="M6 18 18 6M6 6l12 12" />
</symbol>

<!-- blob shape -->
<symbol id="icon-blob" viewBox="0 0 20 20" xmlns="http://www.w3.org/2000/svg">
   <path fill="#4E6BFF" d="M61.4,-48.7C71.5,-36.2,66.1,-11.2,57.1,6.8C48,24.7,35.1,35.5,20,43.6C4.9,51.7,-12.6,57,-27.1,51.8C-41.7,46.5,-53.4,30.7,-59.5,11.5C-65.6,-7.7,-66,-30.4,-55.1,-43C-44.3,-55.6,-22.1,-58.3,1.7,-59.7C25.6,-61.1,51.2,-61.2,61.4,-48.7Z" transform="translate(100 100)" />
</symbol>

<symbol id="icon-antena" viewBox="0 0 24 24">
<path d="M12 0.984q4.547 0 7.781 3.234t3.234 7.781h-2.016q0-3.75-2.625-6.375t-6.375-2.625-6.375 2.625-2.625 6.375h-2.016q0-4.547 3.234-7.781t7.781-3.234zM12.984 14.297v3.281l3.422 3.422-1.406 1.406-3-3-3 3-1.406-1.406 3.422-3.422v-3.281q-1.5-0.609-1.5-2.297 0-1.031 0.727-1.758t1.758-0.727 1.758 0.727 0.727 1.758q0 1.688-1.5 2.297zM12 5.016q2.906 0 4.945 2.039t2.039 4.945h-1.969q0-2.063-1.477-3.539t-3.539-1.477-3.539 1.477-1.477 3.539h-1.969q0-2.906 2.039-4.945t4.945-2.039z"></path>
</symbol>

<symbol id="icon-local_police" viewBox="0 0 24 24">
<path d="M12 0.984l-9 4.031v6q0 2.063 0.68 4.008t1.898 3.586 2.859 2.789 3.563 1.617q1.922-0.469 3.563-1.617t2.859-2.789 1.898-3.586 0.68-4.008v-6zM14.484 12.609l0.938 3.844-3.422-2.016-3.422 2.016 0.938-3.844-3-2.578 3.938-0.375 1.547-3.656 1.547 3.656 3.938 0.328z"></path>
</symbol>

<symbol id="icon-users" viewBox="0 0 24 24">
<path d="M15 14.363c0 0-6.182 0-8.5 5.41 0 0 3.871 1.545 8.5 1.545s8.5-1.545 8.5-1.545c-2.318-5.41-8.5-5.41-8.5-5.41zM15 13.592c2.318 0 3.863-2.318 3.863-6.183s-3.863-3.864-3.863-3.864-3.863 0-3.863 3.864 1.545 6.183 3.863 6.183zM7.5 10.955c0.762 0 1.416-0.316 1.935-0.885-0.192-0.777-0.298-1.665-0.298-2.661 0-1.485 0.571-2.396 1.274-2.958-0.766-1.765-2.911-1.769-2.911-1.769s-3.182 0-3.182 3.182c0 3.182 1.273 5.091 3.182 5.091zM10.5 13.449l-0.108-1.258c-1.558-0.596-2.892-0.6-2.892-0.6s-5.091 0-7 4.455c0 0 2.461 0.981 5.645 1.22 2.773-2.903 4.355-3.817 4.355-3.817z"></path>
</symbol>

</defs>
</svg>